<?xml version="1.0" encoding="UTF-8" standalone="no"?>
<!-- Created with Inkscape (http://www.inkscape.org/) -->

<svg
   xmlns:dc="http://purl.org/dc/elements/1.1/"
   xmlns:cc="http://creativecommons.org/ns#"
   xmlns:rdf="http://www.w3.org/1999/02/22-rdf-syntax-ns#"
   xmlns:svg="http://www.w3.org/2000/svg"
   xmlns="http://www.w3.org/2000/svg"
   xmlns:xlink="http://www.w3.org/1999/xlink"
   xmlns:sodipodi="http://sodipodi.sourceforge.net/DTD/sodipodi-0.dtd"
   xmlns:inkscape="http://www.inkscape.org/namespaces/inkscape"
   sodipodi:docname="Solar Panel Icon.svg"
   inkscape:version="0.48.0 r9654"
   version="1.1"
   id="svg2"
   height="1052.3622047"
   width="744.09448819">
  <sodipodi:namedview
     id="base"
     pagecolor="#ffffff"
     bordercolor="#666666"
     borderopacity="1.0"
     inkscape:pageopacity="0.0"
     inkscape:pageshadow="2"
     inkscape:zoom="0.98994949"
     inkscape:cx="485.69084"
     inkscape:cy="480.81546"
     inkscape:document-units="px"
     inkscape:current-layer="layer2"
     showgrid="false"
     inkscape:window-width="1227"
     inkscape:window-height="733"
     inkscape:window-x="397"
     inkscape:window-y="210"
     inkscape:window-maximized="0">
    <inkscape:grid
       snapvisiblegridlinesonly="true"
       enabled="true"
       visible="true"
       empspacing="5"
       id="grid3799"
       type="xygrid" />
  </sodipodi:namedview>
  <defs
     id="defs4">
    <linearGradient
       id="linearGradient4731">
      <stop
         style="stop-color:#9f580a;stop-opacity:1;"
         offset="0"
         id="stop4733" />
      <stop
         style="stop-color:#ffb579;stop-opacity:1;"
         offset="1"
         id="stop4735" />
    </linearGradient>
    <linearGradient
       id="linearGradient4676">
      <stop
         id="stop4678"
         offset="0"
         style="stop-color:#ffffff;stop-opacity:1;" />
      <stop
         id="stop4680"
         offset="1"
         style="stop-color:#ffffff;stop-opacity:0.4107143;" />
    </linearGradient>
    <linearGradient
       id="linearGradient3793">
      <stop
         style="stop-color:#ffffff;stop-opacity:1;"
         offset="0"
         id="stop3795" />
      <stop
         style="stop-color:#ffffff;stop-opacity:0;"
         offset="1"
         id="stop3797" />
    </linearGradient>
    <linearGradient
       id="linearGradient3785">
      <stop
         id="stop3787"
         offset="0"
         style="stop-color:#0030ff;stop-opacity:1;" />
      <stop
         id="stop3789"
         offset="1"
         style="stop-color:#79b8ff;stop-opacity:1;" />
    </linearGradient>
    <linearGradient
       gradientTransform="translate(-55.487468,-94.398246)"
       gradientUnits="userSpaceOnUse"
       y2="374.04477"
       x2="482.92572"
       y1="118.47616"
       x1="478.73944"
       id="linearGradient3791"
       xlink:href="#linearGradient3785"
       inkscape:collect="always" />
    <linearGradient
       gradientTransform="translate(-55.487468,-94.398246)"
       gradientUnits="userSpaceOnUse"
       y2="374.04477"
       x2="482.92572"
       y1="118.47616"
       x1="478.73944"
       id="linearGradient3791-8"
       xlink:href="#linearGradient3785-9"
       inkscape:collect="always" />
    <linearGradient
       id="linearGradient3785-9">
      <stop
         id="stop3787-1"
         offset="0"
         style="stop-color:#0030ff;stop-opacity:1;" />
      <stop
         id="stop3789-7"
         offset="1"
         style="stop-color:#79b8ff;stop-opacity:1;" />
    </linearGradient>
    <linearGradient
       y2="374.04477"
       x2="482.92572"
       y1="118.47616"
       x1="478.73944"
       gradientTransform="matrix(0.96356342,0,0,0.98659679,-7.8272186,-82.296603)"
       gradientUnits="userSpaceOnUse"
       id="linearGradient4649"
       xlink:href="#linearGradient3785-9"
       inkscape:collect="always" />
    <linearGradient
       inkscape:collect="always"
       xlink:href="#linearGradient4676"
       id="linearGradient4674"
       x1="339.77838"
       y1="233.1702"
       x2="653.18365"
       y2="-61.79435"
       gradientUnits="userSpaceOnUse"
       gradientTransform="matrix(1.0129336,0,0,1.0129336,18.891178,11.759937)" />
    <linearGradient
       inkscape:collect="always"
       xlink:href="#linearGradient4676-1"
       id="linearGradient4674-1"
       x1="339.77838"
       y1="233.1702"
       x2="653.18365"
       y2="-61.79435"
       gradientUnits="userSpaceOnUse"
       gradientTransform="matrix(1.0129336,0,0,1.0129336,117.63998,469.60519)" />
    <linearGradient
       id="linearGradient4676-1">
      <stop
         id="stop4678-6"
         offset="0"
         style="stop-color:#ffffff;stop-opacity:1;" />
      <stop
         id="stop4680-4"
         offset="1"
         style="stop-color:#ffffff;stop-opacity:0.4107143;" />
    </linearGradient>
    <linearGradient
       y2="374.04477"
       x2="482.92572"
       y1="118.47616"
       x1="478.73944"
       gradientTransform="matrix(0.96356342,0,0,0.98659679,-7.8272186,-82.296603)"
       gradientUnits="userSpaceOnUse"
       id="linearGradient4649-9"
       xlink:href="#linearGradient3785-9-2"
       inkscape:collect="always" />
    <linearGradient
       id="linearGradient3785-9-2">
      <stop
         id="stop3787-1-9"
         offset="0"
         style="stop-color:#0030ff;stop-opacity:1;" />
      <stop
         id="stop3789-7-6"
         offset="1"
         style="stop-color:#79b8ff;stop-opacity:1;" />
    </linearGradient>
    <linearGradient
       y2="374.04477"
       x2="482.92572"
       y1="118.47616"
       x1="478.73944"
       gradientTransform="matrix(0.96356342,0,0,0.98659679,90.921584,375.54865)"
       gradientUnits="userSpaceOnUse"
       id="linearGradient4702"
       xlink:href="#linearGradient4731"
       inkscape:collect="always" />
  </defs>
  <metadata
     id="metadata7">
    <rdf:RDF>
      <cc:Work
         rdf:about="">
        <dc:format>image/svg+xml</dc:format>
        <dc:type
           rdf:resource="http://purl.org/dc/dcmitype/StillImage" />
        <dc:title></dc:title>
      </cc:Work>
    </rdf:RDF>
  </metadata>
  <g
     id="layer1"
     inkscape:groupmode="layer"
     inkscape:label="Layer 1">
    <g
       transform="translate(-415.1727,-14.142136)"
       id="g4062">
      <path
         inkscape:connector-curvature="0"
         id="rect2985"
         d="m 355.04306,47.739899 125.5303,0 0,209.152721 -125.5303,0 z"
         style="fill:#ffffff;fill-opacity:0;fill-rule:evenodd;stroke:#ffffff;stroke-width:4.21102381;stroke-linecap:butt;stroke-linejoin:round;stroke-miterlimit:4;stroke-opacity:1" />
      <g
         style="stroke-width:4.13600016;stroke-miterlimit:4;stroke-dasharray:none"
         id="g3880"
         transform="translate(-9.2451798,-2.5253841)">
        <path
           inkscape:connector-curvature="0"
           id="rect2985-7"
           d="m 375.53762,58.854809 15.19696,0 c 2.2385,0 4.04061,1.802112 4.04061,4.04061 l 0,19.237591 c 0,2.238498 -1.80211,4.04061 -4.04061,4.04061 l -15.19696,0 c -2.2385,0 -4.04061,-1.802112 -4.04061,-4.04061 l 0,-19.237591 c 0,-2.238498 1.80211,-4.04061 4.04061,-4.04061 z"
           style="fill:#ffffff;fill-opacity:1;fill-rule:evenodd;stroke:#ffffff;stroke-linecap:butt;stroke-linejoin:round;stroke-opacity:1" />
        <path
           inkscape:connector-curvature="0"
           id="rect2985-7-1"
           d="m 434.09399,58.854809 15.19696,0 c 2.2385,0 4.04061,1.802112 4.04061,4.04061 l 0,19.237591 c 0,2.238498 -1.80211,4.04061 -4.04061,4.04061 l -15.19696,0 c -2.2385,0 -4.04061,-1.802112 -4.04061,-4.04061 l 0,-19.237591 c 0,-2.238498 1.80211,-4.04061 4.04061,-4.04061 z"
           style="fill:#ffffff;fill-opacity:1;fill-rule:evenodd;stroke:#ffffff;stroke-linecap:butt;stroke-linejoin:round;stroke-opacity:1" />
        <path
           inkscape:connector-curvature="0"
           id="rect2985-7-7"
           d="m 404.81582,58.854809 15.19696,0 c 2.2385,0 4.04061,1.802112 4.04061,4.04061 l 0,19.237591 c 0,2.238498 -1.80211,4.04061 -4.04061,4.04061 l -15.19696,0 c -2.2385,0 -4.04061,-1.802112 -4.04061,-4.04061 l 0,-19.237591 c 0,-2.238498 1.80211,-4.04061 4.04061,-4.04061 z"
           style="fill:#ffffff;fill-opacity:1;fill-rule:evenodd;stroke:#ffffff;stroke-linecap:butt;stroke-linejoin:round;stroke-opacity:1" />
        <path
           inkscape:connector-curvature="0"
           id="rect2985-7-8"
           d="m 463.37218,58.854809 15.19697,0 c 2.2385,0 4.04061,1.802112 4.04061,4.04061 l 0,19.237591 c 0,2.238498 -1.80211,4.04061 -4.04061,4.04061 l -15.19697,0 c -2.23849,0 -4.04061,-1.802112 -4.04061,-4.04061 l 0,-19.237591 c 0,-2.238498 1.80212,-4.04061 4.04061,-4.04061 z"
           style="fill:#ffffff;fill-opacity:1;fill-rule:evenodd;stroke:#ffffff;stroke-linecap:butt;stroke-linejoin:round;stroke-opacity:1" />
      </g>
      <use
         style="stroke-width:4.13600016;stroke-miterlimit:4;stroke-dasharray:none"
         x="0"
         y="0"
         xlink:href="#g3880"
         id="use3886"
         transform="translate(0,32.930981)"
         width="744.09448"
         height="1052.3622" />
      <use
         style="stroke-width:4.13600016;stroke-miterlimit:4;stroke-dasharray:none"
         x="0"
         y="0"
         xlink:href="#use3886"
         id="use3888"
         transform="translate(0,32.930992)"
         width="744.09448"
         height="1052.3622" />
      <use
         style="stroke-width:4.13600016;stroke-miterlimit:4;stroke-dasharray:none"
         x="0"
         y="0"
         xlink:href="#use3888"
         id="use3890"
         transform="translate(0,32.930971)"
         width="744.09448"
         height="1052.3622" />
      <use
         style="stroke-width:4.13600016;stroke-miterlimit:4;stroke-dasharray:none"
         x="0"
         y="0"
         xlink:href="#use3890"
         id="use3892"
         transform="translate(0,32.93096)"
         width="744.09448"
         height="1052.3622" />
      <use
         style="stroke-width:4.13600016;stroke-miterlimit:4;stroke-dasharray:none"
         x="0"
         y="0"
         xlink:href="#use3892"
         id="use3894"
         transform="translate(-3.9999994e-8,32.93096)"
         width="744.09448"
         height="1052.3622" />
    </g>
    <rect
       y="493.93176"
       x="433.5394"
       height="250.14993"
       width="250.14993"
       id="rect3775-2"
       style="fill:url(#linearGradient4702);fill-opacity:1;stroke:#5677f9;stroke-width:5.85007286;stroke-linejoin:round;stroke-miterlimit:4;stroke-opacity:1;stroke-dasharray:none"
       ry="52.820503"
       inkscape:export-filename="C:\Users\Pug\workspace\EnlightenMonitor\res\drawable-ldpi\Solar Panel Icon Pressed.png"
       inkscape:export-xdpi="22.5"
       inkscape:export-ydpi="22.5" />
    <path
       d="m 584.37347,679.27319 c 0,0 17.85407,2.63323 17.85407,2.63323 2.66075,0.3925 4.3703,3.02232 3.82196,5.91544 0,0 -4.89295,25.81764 -4.89295,25.81764 -0.59128,3.11989 -3.31521,5.27077 -6.09525,4.80123 0,0 -18.64376,-3.14846 -18.64376,-3.14846 -2.7128,-0.45813 -4.32816,-3.2996 -3.63433,-6.35049 0,0 5.7446,-25.26231 5.7446,-25.26231 0.64417,-2.83261 3.24622,-4.78963 5.84566,-4.40628 0,0 0,0 0,0 m -65.54338,-9.66678 c 0,0 16.53296,2.43842 16.53296,2.43842 2.4628,0.36324 3.82864,2.85167 3.0507,5.59691 0,0 -6.93168,24.46176 -6.93168,24.46176 -0.83637,2.95166 -3.58402,4.99495 -6.14763,4.56196 0,0 -17.20101,-2.90477 -17.20101,-2.90477 -2.50404,-0.42286 -3.76647,-3.10451 -2.84372,-5.99395 0,0 7.65216,-23.95885 7.65216,-23.95885 0.85925,-2.69028 3.48002,-4.55669 5.88822,-4.20148 0,0 0,0 0,0 m 32.14501,4.74092 c 0,0 17.17456,2.533 17.17456,2.533 2.55895,0.37744 4.09049,2.93481 3.42266,5.75223 0,0 -5.95504,25.12264 -5.95504,25.12264 -0.71908,3.03372 -3.45651,5.12949 -6.12507,4.67877 0,0 -17.9005,-3.02303 -17.9005,-3.02303 -2.60538,-0.43998 -4.03777,-3.19946 -3.22456,-6.16747 0,0 6.73805,-24.59456 6.73805,-24.59456 0.75614,-2.75976 3.3689,-4.67043 5.8699,-4.30158 0,0 0,0 0,0 m -63.10621,-9.30735 c 0,0 15.92684,2.34897 15.92684,2.34897 2.37195,0.34993 3.58324,2.77287 2.70387,5.44927 0,0 -7.8302,23.83247 -7.8302,23.83247 -0.94425,2.87374 -3.69913,4.86697 -6.16404,4.45069 0,0 -16.54157,-2.79339 -16.54157,-2.79339 -2.4086,-0.40686 -3.51298,-3.01438 -2.48936,-5.82887 0,0 8.49318,-23.35324 8.49318,-23.35324 0.95433,-2.62401 3.58093,-4.44812 5.90128,-4.1059 0,0 0,0 0,0 m 105.16836,-24.99094 c 0,0 16.98612,2.11331 16.98612,2.11331 2.52983,0.3147 4.17906,2.64079 3.68804,5.23157 0,0 -4.37252,23.07172 -4.37252,23.07172 -0.52733,2.78225 -3.0838,4.73222 -5.72131,4.35409 0,0 -17.7,-2.53742 -17.7,-2.53742 -2.57725,-0.36942 -4.14424,-2.87527 -3.5244,-5.60094 0,0 5.14252,-22.61442 5.14252,-22.61442 0.57776,-2.54083 3.027,-4.32581 5.50155,-4.01791 0,0 0,0 0,0 m -62.51445,-7.77777 c 0,0 15.79243,1.96482 15.79243,1.96482 2.35106,0.29248 3.68901,2.5032 2.98959,4.97162 0,0 -6.22092,21.9532 -6.22092,21.9532 -0.74915,2.64384 -3.32816,4.50374 -5.77127,4.15347 0,0 -16.40196,-2.35136 -16.40196,-2.35136 -2.38937,-0.34254 -3.637,-2.71819 -2.80909,-5.31062 0,0 6.87843,-21.53644 6.87843,-21.53644 0.77385,-2.42276 3.24119,-4.13105 5.54279,-3.84469 0,0 0,0 0,0 m 30.69057,3.81835 c 0,0 16.37294,2.03707 16.37294,2.03707 2.43803,0.30333 3.92641,2.57038 3.32708,5.09852 0,0 -5.33323,22.49939 -5.33323,22.49939 -0.64267,2.71138 -3.2118,4.6153 -5.7493,4.25154 0,0 -17.0325,-2.44173 -17.0325,-2.44173 -2.48057,-0.35567 -3.88243,-2.7948 -3.15434,-5.45221 0,0 6.04464,-22.06312 6.04464,-22.06312 0.6795,-2.48042 3.13897,-4.2263 5.52471,-3.92946 0,0 0,0 0,0 m -60.30733,-7.50317 c 0,0 15.2422,1.89641 15.2422,1.89641 2.26878,0.28226 3.46595,2.4392 2.67367,4.85038 0,0 -7.04129,21.4315 -7.04129,21.4315 -0.84758,2.57939 -3.434,4.39715 -5.78777,4.05971 0,0 -15.8059,-2.26592 -15.8059,-2.26592 -2.30295,-0.33013 -3.40672,-2.64533 -2.48652,-5.17562 0,0 7.64948,-21.03296 7.64948,-21.03296 0.86109,-2.36758 3.33433,-4.03986 5.55613,-3.7635 0,0 0,0 0,0 m 99.92601,-23.82729 c 0,0 16.198,1.68216 16.198,1.68216 2.41114,0.25041 4.00316,2.31935 3.56092,4.65275 0,0 -3.93095,20.74165 -3.93095,20.74165 -0.47317,2.49663 -2.88143,4.27508 -5.39025,3.97214 0,0 -16.84647,-2.03411 -16.84647,-2.03411 -2.45444,-0.29634 -3.97407,-2.51921 -3.41699,-4.96893 0,0 4.63035,-20.36223 4.63035,-20.36223 0.52114,-2.29181 2.83435,-3.92864 5.19539,-3.68343 0,0 0,0 0,0 m -59.7496,-6.20506 c 0,0 15.11409,1.56965 15.11409,1.56965 2.24899,0.23353 3.55787,2.20765 2.92558,4.43909 0,0 -5.61408,19.81164 -5.61408,19.81164 -0.6749,2.38187 -3.10463,4.08411 -5.43766,3.80242 0,0 -15.6726,-1.89243 -15.6726,-1.89243 -2.28429,-0.27581 -3.51375,-2.39197 -2.76675,-4.73097 0,0 6.21645,-19.46367 6.21645,-19.46367 0.70045,-2.19319 3.03116,-3.7646 5.23497,-3.53573 0,0 0,0 0,0 m 29.35995,3.04905 c 0,0 15.64193,1.62446 15.64193,1.62446 2.32796,0.24173 3.77387,2.2622 3.23308,4.54355 0,0 -4.80396,20.26653 -4.80396,20.26653 -0.57785,2.43794 -2.99802,4.17753 -5.41657,3.88545 0,0 -16.24362,-1.96132 -16.24362,-1.96132 -2.36714,-0.28582 -3.73689,-2.45407 -3.08122,-4.84726 0,0 5.45289,-19.90328 5.45289,-19.90328 0.61406,-2.24152 2.93699,-3.84494 5.21747,-3.60813 0,0 0,0 0,0 m -57.7415,-5.99648 c 0,0 14.61253,1.5175 14.61253,1.5175 2.17398,0.22577 3.35408,2.15547 2.6366,4.33903 0,0 -6.366,19.37592 -6.366,19.37592 -0.7649,2.32814 -3.20194,3.9945 -5.45399,3.72259 0,0 -15.13115,-1.82703 -15.13115,-1.82703 -2.20586,-0.26634 -3.30367,-2.33261 -2.47194,-4.61968 0,0 6.92548,-19.04223 6.92548,-19.04223 0.78079,-2.1469 3.11736,-3.68744 5.24847,-3.4661 0,0 0,0 0,0 m 101.58902,-51.77602 c 0,0 14.8213,1.01928 14.8213,1.01928 2.20409,0.15157 3.6909,1.81219 3.32671,3.73388 0,0 -3.22711,17.02778 -3.22711,17.02778 -0.38721,2.04305 -2.54498,3.54548 -4.83049,3.35701 0,0 -15.36308,-1.26671 -15.36308,-1.26671 -2.24067,-0.18474 -3.67028,-1.96091 -3.21314,-3.97119 0,0 3.81144,-16.76098 3.81144,-16.76098 0.43034,-1.89233 2.51189,-3.28779 4.67437,-3.13907 0,0 0,0 0,0 m -54.88675,-3.77463 c 0,0 13.91612,0.95703 13.91612,0.95703 2.06882,0.14227 3.31839,1.73782 2.79429,3.58728 0,0 -4.63924,16.37179 -4.63924,16.37179 -0.55609,1.96246 -2.73302,3.40894 -4.87306,3.2325 0,0 -14.38954,-1.18643 -14.38954,-1.18643 -2.09934,-0.1731 -3.28608,-1.87631 -2.66906,-3.80839 0,0 5.14989,-16.12445 5.14989,-16.12445 0.58203,-1.82219 2.67958,-3.16901 4.7106,-3.02933 0,0 0,0 0,0 m 27.01282,1.8577 c 0,0 14.35799,0.98742 14.35799,0.98742 2.13488,0.14682 3.49964,1.77428 3.05285,3.65918 0,0 -3.95703,16.69351 -3.95703,16.69351 -0.47456,2.002 -2.64281,3.47593 -4.85378,3.29365 0,0 -14.86439,-1.22559 -14.86439,-1.22559 -2.16825,-0.1788 -3.47284,-1.91776 -2.93303,-3.88818 0,0 4.5032,-16.43675 4.5032,-16.43675 0.50863,-1.85661 2.59899,-3.22733 4.69419,-3.08324 0,0 0,0 0,0 m -53.20392,-3.65889 c 0,0 13.49431,0.92802 13.49431,0.92802 2.00593,0.13794 3.1466,1.70276 2.55017,3.51804 0,0 -5.27719,16.06186 -5.27719,16.06186 -0.63225,1.9244 -2.81618,3.34448 -4.88853,3.1736 0,0 -13.9372,-1.14913 -13.9372,-1.14913 -2.03358,-0.16767 -3.10936,-1.83653 -2.42011,-3.73169 0,0 5.75479,-15.82345 5.75479,-15.82345 0.65067,-1.78898 2.75409,-3.11271 4.72376,-2.97725 0,0 0,0 0,0 m 86.92677,-20.90433 c 0,0 14.2167,0.7633 14.2167,0.7633 2.1133,0.11347 3.55182,1.61067 3.21909,3.36621 0,0 -2.94403,15.53424 -2.94403,15.53424 -0.35278,1.86132 -2.40373,3.25149 -4.59181,3.10687 0,0 -14.71468,-0.97261 -14.71468,-0.97261 -2.14708,-0.14191 -3.53428,-1.74024 -3.11731,-3.57386 0,0 3.48117,-15.30857 3.48117,-15.30857 0.39355,-1.73066 2.37577,-3.02699 4.45087,-2.91558 0,0 0,0 0,0 m -52.73792,-2.83151 c 0,0 13.38478,0.71863 13.38478,0.71863 1.98909,0.1068 3.20924,1.54975 2.72915,3.244 0,0 -4.24448,14.97852 -4.24448,14.97852 -0.50814,1.79313 -2.57716,3.13497 -4.632,2.99915 0,0 -13.82262,-0.91364 -13.82262,-0.91364 -2.01749,-0.13335 -3.18138,-1.67093 -2.61697,-3.43829 0,0 4.71681,-14.76827 4.71681,-14.76827 0.5337,-1.67103 2.53117,-2.92502 4.48533,-2.8201 0,0 0,0 0,0 m 25.97303,1.3945 c 0,0 13.79133,0.74046 13.79133,0.74046 2.04975,0.11005 3.37609,1.57965 2.96734,3.30401 0,0 -3.61517,15.25143 -3.61517,15.25143 -0.43299,1.82661 -2.49379,3.19219 -4.61367,3.05207 0,0 -14.25821,-0.94243 -14.25821,-0.94243 -2.08079,-0.13753 -3.35315,-1.70492 -2.86005,-3.50482 0,0 4.11879,-15.03367 4.11879,-15.03367 0.46584,-1.70033 2.45634,-2.97514 4.46964,-2.86705 0,0 0,0 0,0 m -51.18882,-2.74835 c 0,0 12.99591,0.69776 12.99591,0.69776 1.93103,0.10368 3.05063,1.52091 2.50353,3.18605 0,0 -4.83461,14.71501 -4.83461,14.71501 -0.57859,1.76083 -2.65443,3.07972 -4.64711,2.94801 0,0 -13.4068,-0.88615 -13.4068,-0.88615 -1.957,-0.12936 -3.01833,-1.6382 -2.387,-3.37415 0,0 5.2778,-14.51188 5.2778,-14.51188 0.5974,-1.64269 2.60061,-2.87653 4.49828,-2.77465 0,0 0,0 0,0 m -7.18598,-6.67408 c 0,0 111.20599,5.55871 111.20599,5.55871 0,0 -39.28179,221.14091 -39.28179,221.14091 0,0 -147.10852,-25.903 -147.10852,-25.903 0,0 75.18432,-200.79662 75.18432,-200.79662 m 72.88318,66.34895 c 0,0 15.47932,1.32205 15.47932,1.32205 2.30298,0.19671 3.84089,2.04611 3.44051,4.15868 0,0 -3.553,18.74749 -3.553,18.74749 -0.42699,2.25286 -2.70317,3.88355 -5.09517,3.64302 0,0 -16.07085,-1.61619 -16.07085,-1.61619 -2.34274,-0.23563 -3.8165,-2.21789 -3.31313,-4.43167 0,0 4.19107,-18.43035 4.19107,-18.43035 0.47251,-2.07776 2.66384,-3.58583 4.92125,-3.39303 0,0 0,0 0,0 m -57.21619,-4.88663 c 0,0 14.49077,1.23761 14.49077,1.23761 2.15524,0.18405 3.43446,1.95508 2.86004,3.98211 0,0 -5.09184,17.96889 -5.09184,17.96889 -0.61125,2.15698 -2.90762,3.72265 -5.14006,3.4981 0,0 -15.00422,-1.5089 -15.00422,-1.5089 -2.18799,-0.22008 -3.39683,-2.11433 -2.71937,-4.23532 0,0 5.64556,-17.6764 5.64556,-17.6764 0.63704,-1.9948 2.84514,-3.44665 4.95912,-3.26609 0,0 0,0 0,0 m 28.1382,2.4032 c 0,0 14.97277,1.27877 14.97277,1.27877 2.22728,0.19022 3.63196,1.99964 3.14151,4.06857 0,0 -4.34971,18.35027 -4.34971,18.35027 -0.52243,2.20392 -2.80979,3.80147 -5.11995,3.56913 0,0 -15.52375,-1.56117 -15.52375,-1.56117 -2.26337,-0.22763 -3.60056,-2.16498 -3.00701,-4.33141 0,0 4.94393,-18.0458 4.94393,-18.0458 0.55771,-2.03548 2.75828,-3.5149 4.94221,-3.32836 0,0 0,0 0,0 m -55.38141,-4.72997 c 0,0 14.03165,1.19839 14.03165,1.19839 2.08656,0.17823 3.24759,1.91239 2.5949,3.89906 0,0 -5.78334,17.60249 -5.78334,17.60249 -0.69389,2.11188 -2.99758,3.64685 -5.15613,3.42979 0,0 -14.51017,-1.45927 -14.51017,-1.45927 -2.11635,-0.21282 -3.20455,-2.0658 -2.44903,-4.14314 0,0 6.29958,-17.32122 6.29958,-17.32122 0.71122,-1.95573 2.9252,-3.38095 4.97254,-3.2061 0,0 0,0 0,0"
       style="fill:url(#linearGradient4674-1);fill-opacity:1;fill-rule:evenodd;stroke:#ffffff;stroke-width:4.18949223;stroke-linecap:butt;stroke-linejoin:round;stroke-miterlimit:4;stroke-opacity:1;stroke-dasharray:none"
       id="path4299-9"
       inkscape:connector-curvature="0"
       inkscape:export-filename="C:\Users\Pug\workspace\EnlightenMonitor\res\drawable-ldpi\Solar Panel Icon Pressed.png"
       inkscape:export-xdpi="22.5"
       inkscape:export-ydpi="22.5" />
  </g>
  <g
     inkscape:label="Panel"
     id="layer2"
     inkscape:groupmode="layer">
    <rect
       y="36.086525"
       x="334.79059"
       height="250.14993"
       width="250.14993"
       id="rect3775"
       style="fill:url(#linearGradient4649);fill-opacity:1;stroke:#5677f9;stroke-width:5.85007286;stroke-linejoin:round;stroke-miterlimit:4;stroke-opacity:1;stroke-dasharray:none"
       ry="52.820503"
       inkscape:export-filename="C:\Users\Pug\workspace\EnlightenMonitor\res\drawable-ldpi\Solar Panel Icon.png"
       inkscape:export-xdpi="22.5"
       inkscape:export-ydpi="22.5" />
    <path
       d="m 485.62467,221.42794 c 0,0 17.85407,2.63323 17.85407,2.63323 2.66075,0.3925 4.3703,3.02232 3.82196,5.91544 0,0 -4.89295,25.81764 -4.89295,25.81764 -0.59128,3.11989 -3.31521,5.27077 -6.09525,4.80123 0,0 -18.64376,-3.14846 -18.64376,-3.14846 -2.7128,-0.45813 -4.32816,-3.2996 -3.63433,-6.35049 0,0 5.7446,-25.26231 5.7446,-25.26231 0.64417,-2.83261 3.24622,-4.78963 5.84566,-4.40628 0,0 0,0 0,0 m -65.54338,-9.66678 c 0,0 16.53296,2.43842 16.53296,2.43842 2.4628,0.36324 3.82864,2.85167 3.0507,5.59691 0,0 -6.93168,24.46176 -6.93168,24.46176 -0.83637,2.95166 -3.58402,4.99495 -6.14763,4.56196 0,0 -17.20101,-2.90477 -17.20101,-2.90477 -2.50404,-0.42286 -3.76647,-3.10451 -2.84372,-5.99395 0,0 7.65216,-23.95885 7.65216,-23.95885 0.85925,-2.69028 3.48002,-4.55669 5.88822,-4.20148 0,0 0,0 0,0 m 32.14501,4.74092 c 0,0 17.17456,2.533 17.17456,2.533 2.55895,0.37744 4.09049,2.93481 3.42266,5.75223 0,0 -5.95504,25.12264 -5.95504,25.12264 -0.71908,3.03372 -3.45651,5.12949 -6.12507,4.67877 0,0 -17.9005,-3.02303 -17.9005,-3.02303 -2.60538,-0.43998 -4.03777,-3.19946 -3.22456,-6.16747 0,0 6.73805,-24.59456 6.73805,-24.59456 0.75614,-2.75976 3.3689,-4.67043 5.8699,-4.30158 0,0 0,0 0,0 m -63.10621,-9.30735 c 0,0 15.92684,2.34897 15.92684,2.34897 2.37195,0.34993 3.58324,2.77287 2.70387,5.44927 0,0 -7.8302,23.83247 -7.8302,23.83247 -0.94425,2.87374 -3.69913,4.86697 -6.16404,4.45069 0,0 -16.54157,-2.79339 -16.54157,-2.79339 -2.4086,-0.40686 -3.51298,-3.01438 -2.48936,-5.82887 0,0 8.49318,-23.35324 8.49318,-23.35324 0.95433,-2.62401 3.58093,-4.44812 5.90128,-4.1059 0,0 0,0 0,0 m 105.16836,-24.99094 c 0,0 16.98612,2.11331 16.98612,2.11331 2.52983,0.3147 4.17906,2.64079 3.68804,5.23157 0,0 -4.37252,23.07172 -4.37252,23.07172 -0.52733,2.78225 -3.0838,4.73222 -5.72131,4.35409 0,0 -17.7,-2.53742 -17.7,-2.53742 -2.57725,-0.36942 -4.14424,-2.87527 -3.5244,-5.60094 0,0 5.14252,-22.61442 5.14252,-22.61442 0.57776,-2.54083 3.027,-4.32581 5.50155,-4.01791 0,0 0,0 0,0 M 431.774,174.42602 c 0,0 15.79243,1.96482 15.79243,1.96482 2.35106,0.29248 3.68901,2.5032 2.98959,4.97162 0,0 -6.22092,21.9532 -6.22092,21.9532 -0.74915,2.64384 -3.32816,4.50374 -5.77127,4.15347 0,0 -16.40196,-2.35136 -16.40196,-2.35136 -2.38937,-0.34254 -3.637,-2.71819 -2.80909,-5.31062 0,0 6.87843,-21.53644 6.87843,-21.53644 0.77385,-2.42276 3.24119,-4.13105 5.54279,-3.84469 0,0 0,0 0,0 m 30.69057,3.81835 c 0,0 16.37294,2.03707 16.37294,2.03707 2.43803,0.30333 3.92641,2.57038 3.32708,5.09852 0,0 -5.33323,22.49939 -5.33323,22.49939 -0.64267,2.71138 -3.2118,4.6153 -5.7493,4.25154 0,0 -17.0325,-2.44173 -17.0325,-2.44173 -2.48057,-0.35567 -3.88243,-2.7948 -3.15434,-5.45221 0,0 6.04464,-22.06312 6.04464,-22.06312 0.6795,-2.48042 3.13897,-4.2263 5.52471,-3.92946 0,0 0,0 0,0 m -60.30733,-7.50317 c 0,0 15.2422,1.89641 15.2422,1.89641 2.26878,0.28226 3.46595,2.4392 2.67367,4.85038 0,0 -7.04129,21.4315 -7.04129,21.4315 -0.84758,2.57939 -3.434,4.39715 -5.78777,4.05971 0,0 -15.8059,-2.26592 -15.8059,-2.26592 -2.30295,-0.33013 -3.40672,-2.64533 -2.48652,-5.17562 0,0 7.64948,-21.03296 7.64948,-21.03296 0.86109,-2.36758 3.33433,-4.03986 5.55613,-3.7635 0,0 0,0 0,0 m 99.92601,-23.82729 c 0,0 16.198,1.68216 16.198,1.68216 2.41114,0.25041 4.00316,2.31935 3.56092,4.65275 0,0 -3.93095,20.74165 -3.93095,20.74165 -0.47317,2.49663 -2.88143,4.27508 -5.39025,3.97214 0,0 -16.84647,-2.03411 -16.84647,-2.03411 -2.45444,-0.29634 -3.97407,-2.51921 -3.41699,-4.96893 0,0 4.63035,-20.36223 4.63035,-20.36223 0.52114,-2.29181 2.83435,-3.92864 5.19539,-3.68343 0,0 0,0 0,0 m -59.7496,-6.20506 c 0,0 15.11409,1.56965 15.11409,1.56965 2.24899,0.23353 3.55787,2.20765 2.92558,4.43909 0,0 -5.61408,19.81164 -5.61408,19.81164 -0.6749,2.38187 -3.10463,4.08411 -5.43766,3.80242 0,0 -15.6726,-1.89243 -15.6726,-1.89243 -2.28429,-0.27581 -3.51375,-2.39197 -2.76675,-4.73097 0,0 6.21645,-19.46367 6.21645,-19.46367 0.70045,-2.19319 3.03116,-3.7646 5.23497,-3.53573 0,0 0,0 0,0 m 29.35995,3.04905 c 0,0 15.64193,1.62446 15.64193,1.62446 2.32796,0.24173 3.77387,2.2622 3.23308,4.54355 0,0 -4.80396,20.26653 -4.80396,20.26653 -0.57785,2.43794 -2.99802,4.17753 -5.41657,3.88545 0,0 -16.24362,-1.96132 -16.24362,-1.96132 -2.36714,-0.28582 -3.73689,-2.45407 -3.08122,-4.84726 0,0 5.45289,-19.90328 5.45289,-19.90328 0.61406,-2.24152 2.93699,-3.84494 5.21747,-3.60813 0,0 0,0 0,0 m -57.7415,-5.99648 c 0,0 14.61253,1.5175 14.61253,1.5175 2.17398,0.22577 3.35408,2.15547 2.6366,4.33903 0,0 -6.366,19.37592 -6.366,19.37592 -0.7649,2.32814 -3.20194,3.9945 -5.45399,3.72259 0,0 -15.13115,-1.82703 -15.13115,-1.82703 -2.20586,-0.26634 -3.30367,-2.33261 -2.47194,-4.61968 0,0 6.92548,-19.04223 6.92548,-19.04223 0.78079,-2.1469 3.11736,-3.68744 5.24847,-3.4661 0,0 0,0 0,0 M 515.54112,85.985394 c 0,0 14.8213,1.019278 14.8213,1.019278 2.20409,0.151576 3.6909,1.812197 3.32671,3.733888 0,0 -3.22711,17.02778 -3.22711,17.02778 -0.38721,2.04305 -2.54498,3.54548 -4.83049,3.35701 0,0 -15.36308,-1.26671 -15.36308,-1.26671 -2.24067,-0.18474 -3.67028,-1.96091 -3.21314,-3.97119 0,0 3.81144,-16.760981 3.81144,-16.760981 0.43034,-1.892328 2.51189,-3.287791 4.67437,-3.139075 0,0 0,0 0,0 m -54.88675,-3.77463 c 0,0 13.91612,0.957028 13.91612,0.957028 2.06882,0.142279 3.31839,1.737826 2.79429,3.587281 0,0 -4.63924,16.371797 -4.63924,16.371797 -0.55609,1.96246 -2.73302,3.40894 -4.87306,3.2325 0,0 -14.38954,-1.18643 -14.38954,-1.18643 -2.09934,-0.1731 -3.28608,-1.87631 -2.66906,-3.80839 0,0 5.14989,-16.124457 5.14989,-16.124457 0.58203,-1.822185 2.67958,-3.169003 4.7106,-3.029329 0,0 0,0 0,0 m 27.01282,1.857704 c 0,0 14.35799,0.987418 14.35799,0.987418 2.13488,0.146819 3.49964,1.774278 3.05285,3.659179 0,0 -3.95703,16.693515 -3.95703,16.693515 -0.47456,2.002 -2.64281,3.47593 -4.85378,3.29365 0,0 -14.86439,-1.22559 -14.86439,-1.22559 -2.16825,-0.1788 -3.47284,-1.91776 -2.93303,-3.88818 0,0 4.5032,-16.436751 4.5032,-16.436751 0.50863,-1.856615 2.59899,-3.227329 4.69419,-3.083241 0,0 0,0 0,0 m -53.20392,-3.658895 c 0,0 13.49431,0.928021 13.49431,0.928021 2.00593,0.137947 3.1466,1.702758 2.55017,3.518039 0,0 -5.27719,16.061867 -5.27719,16.061867 -0.63225,1.9244 -2.81618,3.34448 -4.88853,3.1736 0,0 -13.9372,-1.14913 -13.9372,-1.14913 -2.03358,-0.16767 -3.10936,-1.83653 -2.42011,-3.731693 0,0 5.75479,-15.823455 5.75479,-15.823455 0.65067,-1.788978 2.75409,-3.112709 4.72376,-2.977249 0,0 0,0 0,0 m 86.92677,-20.904322 c 0,0 14.2167,0.7633 14.2167,0.7633 2.1133,0.113462 3.55182,1.610664 3.21909,3.366203 0,0 -2.94403,15.534242 -2.94403,15.534242 -0.35278,1.861319 -2.40373,3.251492 -4.59181,3.106866 0,0 -14.71468,-0.972602 -14.71468,-0.972602 -2.14708,-0.141914 -3.53428,-1.740247 -3.11731,-3.573862 0,0 3.48117,-15.308576 3.48117,-15.308576 0.39355,-1.730658 2.37577,-3.026983 4.45087,-2.915571 0,0 0,0 0,0 m -52.73792,-2.831513 c 0,0 13.38478,0.718631 13.38478,0.718631 1.98909,0.106795 3.20924,1.54975 2.72915,3.243993 0,0 -4.24448,14.978528 -4.24448,14.978528 -0.50814,1.793131 -2.57716,3.134967 -4.632,2.999148 0,0 -13.82262,-0.913639 -13.82262,-0.913639 -2.01749,-0.133352 -3.18138,-1.670937 -2.61697,-3.438295 0,0 4.71681,-14.768269 4.71681,-14.768269 0.5337,-1.671025 2.53117,-2.925019 4.48533,-2.820097 0,0 0,0 0,0 m 25.97303,1.394497 c 0,0 13.79133,0.740462 13.79133,0.740462 2.04975,0.110054 3.37609,1.579646 2.96734,3.304006 0,0 -3.61517,15.251438 -3.61517,15.251438 -0.43299,1.826608 -2.49379,3.192186 -4.61367,3.05207 0,0 -14.25821,-0.942431 -14.25821,-0.942431 -2.08079,-0.137534 -3.35315,-1.704926 -2.86005,-3.50482 0,0 4.11879,-15.033675 4.11879,-15.033675 0.46584,-1.70033 2.45634,-2.975142 4.46964,-2.86705 0,0 0,0 0,0 m -51.18882,-2.748344 c 0,0 12.99591,0.697754 12.99591,0.697754 1.93103,0.103681 3.05063,1.520916 2.50353,3.186054 0,0 -4.83461,14.715007 -4.83461,14.715007 -0.57859,1.760833 -2.65443,3.079723 -4.64711,2.948009 0,0 -13.4068,-0.88615 -13.4068,-0.88615 -1.957,-0.129357 -3.01833,-1.6382 -2.387,-3.374152 0,0 5.2778,-14.511877 5.2778,-14.511877 0.5974,-1.642691 2.60061,-2.87653 4.49828,-2.774645 0,0 0,0 0,0 m -7.18598,-6.674082 c 0,0 111.20599,5.558708 111.20599,5.558708 0,0 -39.28179,221.140913 -39.28179,221.140913 0,0 -147.10852,-25.903 -147.10852,-25.903 0,0 75.18432,-200.796621 75.18432,-200.796621 m 72.88318,66.348951 c 0,0 15.47932,1.32205 15.47932,1.32205 2.30298,0.19671 3.84089,2.04611 3.44051,4.15868 0,0 -3.553,18.74749 -3.553,18.74749 -0.42699,2.25286 -2.70317,3.88355 -5.09517,3.64302 0,0 -16.07085,-1.61619 -16.07085,-1.61619 -2.34274,-0.23563 -3.8165,-2.21789 -3.31313,-4.43167 0,0 4.19107,-18.43035 4.19107,-18.43035 0.47251,-2.07776 2.66384,-3.58583 4.92125,-3.39303 0,0 0,0 0,0 m -57.21619,-4.88663 c 0,0 14.49077,1.23761 14.49077,1.23761 2.15524,0.18405 3.43446,1.95508 2.86004,3.98211 0,0 -5.09184,17.96889 -5.09184,17.96889 -0.61125,2.15698 -2.90762,3.72265 -5.14006,3.4981 0,0 -15.00422,-1.5089 -15.00422,-1.5089 -2.18799,-0.22008 -3.39683,-2.11433 -2.71937,-4.23532 0,0 5.64556,-17.6764 5.64556,-17.6764 0.63704,-1.9948 2.84514,-3.44665 4.95912,-3.26609 0,0 0,0 0,0 m 28.1382,2.4032 c 0,0 14.97277,1.27877 14.97277,1.27877 2.22728,0.19022 3.63196,1.99964 3.14151,4.06857 0,0 -4.34971,18.35027 -4.34971,18.35027 -0.52243,2.20392 -2.80979,3.80147 -5.11995,3.56913 0,0 -15.52375,-1.56117 -15.52375,-1.56117 -2.26337,-0.22763 -3.60056,-2.16498 -3.00701,-4.33141 0,0 4.94393,-18.0458 4.94393,-18.0458 0.55771,-2.03548 2.75828,-3.5149 4.94221,-3.32836 0,0 0,0 0,0 m -55.38141,-4.72997 c 0,0 14.03165,1.19839 14.03165,1.19839 2.08656,0.17823 3.24759,1.91239 2.5949,3.89906 0,0 -5.78334,17.60249 -5.78334,17.60249 -0.69389,2.11188 -2.99758,3.64685 -5.15613,3.42979 0,0 -14.51017,-1.45927 -14.51017,-1.45927 -2.11635,-0.21282 -3.20455,-2.0658 -2.44903,-4.14314 0,0 6.29958,-17.32122 6.29958,-17.32122 0.71122,-1.95573 2.9252,-3.38095 4.97254,-3.2061 0,0 0,0 0,0"
       style="fill:url(#linearGradient4674);fill-opacity:1;fill-rule:evenodd;stroke:#ffffff;stroke-width:4.18949223;stroke-linecap:butt;stroke-linejoin:round;stroke-miterlimit:4;stroke-opacity:1;stroke-dasharray:none"
       id="path4299"
       inkscape:connector-curvature="0"
       inkscape:export-filename="C:\Users\Pug\workspace\EnlightenMonitor\res\drawable-ldpi\Solar Panel Icon.png"
       inkscape:export-xdpi="22.5"
       inkscape:export-ydpi="22.5" />
    <path
       sodipodi:nodetypes="ccccc"
       inkscape:connector-curvature="0"
       id="path4024"
       d="M 689.17657,222.77441 765.44308,20.743902 878.58018,26.299732 839.6893,249.54345 z"
       style="fill:none;stroke:#000000;stroke-width:1px;stroke-linecap:butt;stroke-linejoin:miter;stroke-opacity:1" />
  </g>
</svg>
